<?xml version="1.0" encoding="UTF-8"?>
<svg width="175px" height="199px" viewBox="0 0 175 199" version="1.1" xmlns="http://www.w3.org/2000/svg" xmlns:xlink="http://www.w3.org/1999/xlink">
    <!-- Generator: Sketch 52.6 (67491) - http://www.bohemiancoding.com/sketch -->
    <title>html5</title>
    <desc>Created with Sketch.</desc>
    <g id="Page-1" stroke="none" stroke-width="1" fill="none" fill-rule="evenodd">
        <g id="html5">
            <polygon id="Path" fill="#E55025" points="0 0 175.041322 0 159.504132 178.842975 87.4380165 198.512397 15.5371901 178.842975"></polygon>
            <polygon id="Path" fill="#F26722" points="160 14.8760331 88.0991736 14.8760331 88.0991736 183.801653 146.115702 167.272727"></polygon>
            <polygon id="Path" fill="#FFFFFF" points="56.8595041 58.677686 141.157025 58.677686 143.140496 36.8595041 132.561983 36.8595041 32.892562 36.8595041 39.0082645 101.983471 114.876033 101.983471 112.066116 131.570248 87.2727273 137.68595 63.3057851 131.570248 61.8181818 114.049587 40.1652893 114.049587 43.4710744 149.421488 88.2644628 161.652893 132.561983 149.421488 139.008264 80.661157 59.5041322 80.661157"></polygon>
            <g id="Group" transform="translate(31.404959, 36.363636)">
                <polygon id="Path" fill="#E6E6E6" points="55.8677686 101.322314 31.9008264 95.2066116 30.4132231 77.6859504 8.76033058 77.6859504 12.0661157 113.057851 56.6942149 125.289256 56.6942149 101.157025"></polygon>
                <polygon id="Path" fill="#EBEBEB" points="28.0991736 44.2975207 25.4545455 22.3140496 56.6942149 22.3140496 56.6942149 0.495867769 1.48760331 0.495867769 7.60330579 65.6198347 56.6942149 65.6198347 56.6942149 44.2975207"></polygon>
            </g>
        </g>
    </g>
</svg>