<?xml version="1.0" encoding="UTF-8"?>
<svg width="266px" height="199px" viewBox="0 0 266 199" version="1.1" xmlns="http://www.w3.org/2000/svg" xmlns:xlink="http://www.w3.org/1999/xlink">
    <!-- Generator: Sketch 52.6 (67491) - http://www.bohemiancoding.com/sketch -->
    <title>sass</title>
    <desc>Created with Sketch.</desc>
    <g id="Page-1" stroke="none" stroke-width="1" fill="none" fill-rule="evenodd">
        <g id="sass" transform="translate(-1.000000, 0.000000)" fill="#CC6699" fill-rule="nonzero">
            <path d="M126.138614,115.643564 C129.70297,116.237624 131.287129,118.217822 130.49505,121.782178 C128.316832,130.29703 125.742574,138.613861 124.158416,147.326733 C123.762376,149.50495 123.564356,151.485149 123.960396,153.861386 C125.148515,153.663366 125.346535,152.673267 125.742574,151.881188 C132.871287,138.415842 138.613861,124.356436 144.752475,110.49505 C147.128713,105.148515 148.910891,100 150.09901,94.4554455 C150.49505,93.0693069 151.287129,92.2772277 152.673267,91.8811881 C156.237624,90.8910891 160.19802,90.2970297 163.960396,90.8910891 C167.128713,91.4851485 168.118812,92.8712871 166.930693,96.039604 C164.554455,102.178218 163.762376,108.514851 164.950495,115.049505 C165.346535,117.623762 166.336634,120 167.524752,122.376238 C168.118812,123.564356 168.712871,123.762376 169.50495,122.574257 C175.247525,112.079208 182.178218,102.178218 185.148515,90.2970297 C186.534653,83.960396 186.930693,83.7623762 194.059406,83.1683168 C195.841584,83.1683168 197.425743,82.970297 199.207921,83.1683168 C202.574257,83.5643564 203.564356,85.1485149 202.376238,88.3168317 C200.19802,94.4554455 199.207921,100.594059 200.39604,107.128713 C201.188119,111.287129 203.366337,114.851485 205.148515,118.415842 C205.742574,119.60396 206.534653,119.405941 207.524752,119.009901 C213.663366,116.237624 220,114.653465 226.732673,114.257426 C241.386139,113.663366 254.257426,117.227723 262.772277,130.29703 C266.930693,136.831683 268.316832,143.960396 264.356436,151.287129 C262.178218,155.247525 258.811881,158.019802 254.653465,159.60396 C253.663366,160 252.475248,160.39604 251.881188,159.207921 C251.287129,158.019802 252.475248,157.623762 253.069307,157.029703 C263.168317,149.50495 263.168317,138.415842 253.069307,130.693069 C247.326733,126.336634 240.990099,124.356436 233.861386,123.762376 C226.138614,122.970297 218.415842,123.168317 210.891089,125.940594 C209.306931,126.534653 208.910891,127.128713 209.50495,128.712871 C213.861386,140.792079 208.514851,147.920792 199.207921,154.059406 C196.237624,156.039604 193.069307,157.227723 189.70297,158.217822 C182.772277,160.19802 178.613861,156.435644 180,149.306931 C181.188119,142.772277 184.752475,137.425743 189.108911,132.475248 C190.29703,131.287129 191.485149,129.90099 192.673267,128.910891 C193.663366,128.118812 194.851485,127.524752 195.049505,126.534653 C195.049505,125.742574 191.485149,122.772277 187.722772,106.930693 C186.534653,109.108911 185.346535,111.287129 183.960396,113.663366 C180.792079,119.405941 173.069307,131.683168 172.871287,132.475248 C172.673267,133.267327 172.871287,134.059406 173.267327,134.851485 C174.257426,137.227723 174.851485,139.80198 175.049505,142.376238 C176.039604,152.079208 171.485149,158.613861 163.168317,162.970297 C158.019802,165.544554 152.673267,167.326733 146.930693,167.128713 C144.554455,167.128713 142.376238,166.534653 141.188119,164.356436 C140.19802,162.178218 140.990099,160.19802 142.376238,158.415842 C146.732673,153.069307 151.287129,147.722772 155.643564,142.178218 C158.217822,139.009901 159.207921,137.623762 159.207921,136.039604 C159.207921,134.653465 154.653465,129.108911 151.683168,114.851485 C150.09901,118.613861 148.514851,122.376238 146.930693,125.940594 C141.584158,138.217822 135.445545,150.09901 128.910891,161.782178 C127.524752,164.356436 125.742574,166.732673 123.366337,168.514851 C118.613861,172.673267 113.465347,171.089109 111.683168,164.950495 C110.693069,161.386139 110.29703,157.623762 110.891089,153.861386 C110.891089,153.861386 111.089109,152.079208 110.891089,151.881188 C108.316832,157.425743 106.138614,162.772277 103.168317,167.920792 C100.792079,171.881188 97.8217822,174.851485 92.6732673,174.257426 C90.0990099,174.059406 88.1188119,173.069307 86.5346535,171.089109 C82.3762376,165.742574 80.5940594,159.60396 79.8019802,152.871287 C79.009901,145.940594 80.3960396,139.009901 81.980198,132.277228 C82.1782178,131.485149 82.5742574,130.891089 82.3762376,129.70297 C78.2178218,132.079208 74.0594059,134.653465 69.9009901,137.029703 C68.7128713,137.821782 69.1089109,138.613861 69.3069307,139.60396 C74.0594059,154.257426 72.2772277,168.118812 63.3663366,180.792079 C56.8316832,190.09901 47.7227723,195.841584 36.4356436,198.019802 C35.8415842,198.217822 35.049505,198.415842 34.4554455,198.613861 C31.2871287,198.613861 28.3168317,198.613861 25.1485149,198.613861 C24.950495,198.415842 24.7524752,198.415842 24.3564356,198.217822 C15.2475248,196.039604 10.6930693,190.49505 10.4950495,181.188119 C10.0990099,171.089109 14.6534653,163.366337 21.7821782,156.831683 C30.4950495,148.910891 40.3960396,142.970297 50.6930693,137.623762 C53.4653465,136.237624 53.4653465,136.039604 50.8910891,134.059406 C45.9405941,130.49505 40.990099,126.930693 36.039604,123.366337 C28.5148515,118.217822 21.1881188,112.673267 14.8514851,106.138614 C8.71287129,100 4.15841584,92.6732673 1.78217822,84.1584158 C-2.37623762,64.950495 13.8613861,51.2871287 24.7524752,41.3861386 C34.0594059,32.6732673 44.7524752,25.5445545 55.8415842,19.6039604 C71.2871287,11.4851485 87.1287129,4.55445545 104.554455,1.38613861 C107.128713,0.99009901 128.118812,-2.77227723 147.128713,4.35643564 C154.455446,7.32673267 161.188119,11.4851485 164.950495,18.8118812 C169.306931,26.9306931 169.108911,35.4455446 166.534653,43.960396 C161.386139,60.3960396 150.693069,72.2772277 136.039604,80.5940594 C124.752475,86.9306931 112.277228,90.0990099 99.4059406,91.0891089 C91.2871287,91.6831683 83.1683168,91.4851485 75.6435644,88.3168317 C71.2871287,86.5346535 67.5247525,83.7623762 64.7524752,80 C63.7623762,78.8118812 63.1683168,77.4257426 62.7722772,75.8415842 C62.5742574,74.8514851 62.3762376,73.8613861 63.3663366,73.2673267 C64.3564356,72.6732673 64.950495,73.4653465 65.5445545,74.0594059 C72.4752475,81.1881188 81.1881188,82.7722772 90.4950495,81.980198 C106.732673,80.7920792 121.584158,75.4455446 134.455446,65.3465347 C141.386139,60 146.930693,53.6633663 150.891089,45.7425743 C152.475248,42.3762376 153.465347,38.8118812 153.663366,35.049505 C154.257426,28.3168317 150.693069,22.7722772 143.960396,19.8019802 C135.841584,16.2376238 127.326733,15.6435644 118.613861,16.4356436 C89.1089109,19.2079208 64.1584158,32.4752475 41.1881188,50.0990099 C35.2475248,54.6534653 30.2970297,60.1980198 26.3366337,66.7326733 C20,79.4059406 21.3861386,91.8811881 31.6831683,102.574257 C37.6237624,108.910891 44.7524752,113.861386 51.6831683,119.207921 C55.4455446,122.178218 59.4059406,125.346535 62.7722772,128.910891 C63.7623762,130.09901 64.7524752,130.09901 66.1386139,129.306931 C73.6633663,125.148515 81.3861386,120.990099 88.9108911,116.831683 C90.0990099,116.237624 90.6930693,115.445545 91.4851485,114.455446 C95.8415842,109.306931 100.594059,104.752475 106.732673,101.980198 C108.118812,101.386139 109.50495,100.792079 110.891089,100.594059 C117.227723,99.009901 121.782178,102.178218 122.376238,108.712871 C122.376238,109.50495 122.376238,110.29703 122.376238,111.089109 C122.376238,111.089109 122.376238,115.445545 121.980198,117.821782 C123.168317,115.049505 126.138614,115.643564 126.138614,115.643564 Z M61.980198,150.29703 C62.1782178,148.316832 61.7821782,145.742574 61.1881188,143.168317 C60.990099,142.178218 60.5940594,141.584158 59.4059406,142.376238 C50.2970297,147.920792 41.1881188,153.465347 34.0594059,161.584158 C30.0990099,166.138614 27.5247525,171.287129 28.1188119,177.623762 C28.3168317,180.792079 30.2970297,182.772277 33.4653465,183.168317 C34.8514851,183.366337 36.039604,183.168317 37.2277228,182.970297 C51.0891089,179.80198 61.980198,165.742574 61.980198,150.29703 Z M93.8613861,146.732673 C93.8613861,148.712871 93.8613861,150.49505 94.2574257,152.475248 C94.6534653,154.455446 94.4554455,157.227723 96.8316832,157.623762 C99.009901,158.019802 99.8019802,155.247525 100.594059,153.663366 C104.356436,146.336634 106.930693,138.613861 109.90099,131.089109 C111.881188,125.940594 113.663366,120.594059 114.653465,115.049505 C114.851485,113.861386 115.247525,112.475248 114.257426,111.683168 C113.069307,110.693069 111.881188,111.287129 110.693069,111.881188 C109.108911,112.475248 107.920792,113.465347 106.732673,114.653465 C98.4158416,123.564356 94.4554455,134.455446 93.8613861,146.732673 Z M199.60396,135.841584 C199.60396,135.049505 199.60396,134.257426 199.60396,133.465347 C199.405941,132.079208 199.009901,131.485149 197.623762,132.673267 C193.267327,136.831683 190.693069,141.782178 189.108911,147.524752 C188.910891,147.920792 188.712871,148.514851 189.306931,148.910891 C189.90099,149.306931 190.49505,148.910891 190.891089,148.712871 C196.435644,146.534653 199.60396,141.782178 199.60396,135.841584 Z M151.485149,158.019802 C156.831683,157.227723 165.148515,148.514851 163.564356,143.960396 C159.80198,148.712871 156.039604,153.267327 151.485149,158.019802 Z" id="Shape"></path>
        </g>
    </g>
</svg>