<?xml version="1.0" encoding="UTF-8"?>
<svg width="512px" height="408px" viewBox="0 0 512 408" version="1.1" xmlns="http://www.w3.org/2000/svg" xmlns:xlink="http://www.w3.org/1999/xlink">
    <!-- Generator: Sketch 52.6 (67491) - http://www.bohemiancoding.com/sketch -->
    <title>bootstrap-logo</title>
    <desc>Created with Sketch.</desc>
    <defs>
        <linearGradient x1="14.8591797%" y1="2.64656863%" x2="102.242188%" y2="89.692402%" id="linearGradient-1">
            <stop stop-color="#9013FE" offset="0%"></stop>
            <stop stop-color="#6610F2" offset="100%"></stop>
        </linearGradient>
        <linearGradient x1="9.45878788%" y1="6.58202765%" x2="70.0684848%" y2="84.5230415%" id="linearGradient-2">
            <stop stop-color="#FFFFFF" offset="0%"></stop>
            <stop stop-color="#F1E5FC" offset="100%"></stop>
        </linearGradient>
    </defs>
    <g id="Page-1" stroke="none" stroke-width="1" fill="none" fill-rule="evenodd">
        <g id="bootstrap-logo">
            <path d="M56.481,53.32 C55.515,25.58 77.128,0 106.342,0 L405.695,0 C434.909,0 456.522,25.58 455.556,53.32 C454.628,79.967 455.833,114.485 464.52,142.63 C473.235,170.862 487.931,188.707 512,191 L512,217 C487.931,219.293 473.235,237.138 464.52,265.37 C455.833,293.515 454.628,328.033 455.556,354.681 C456.522,382.42 434.909,408 405.695,408 L106.342,408 C77.128,408 55.515,382.42 56.482,354.681 C57.409,328.033 56.204,293.515 47.516,265.37 C38.802,237.138 24.07,219.293 0,217 L0,191 C24.069,188.707 38.802,170.862 47.516,142.63 C56.204,114.485 57.409,79.967 56.481,53.32 Z" id="Path" fill="url(#linearGradient-1)"></path>
            <path d="M267.103,312.457 C314.4,312.457 342.901,289.299 342.901,251.102 C342.901,222.229 322.565,201.326 292.369,198.017 L292.369,196.814 C314.554,193.205 331.963,172.603 331.963,149.595 C331.963,116.812 306.081,95.457 266.641,95.457 L177.901,95.457 L177.901,312.457 L267.103,312.457 Z M212.411,122.977 L258.322,122.977 C283.28,122.977 297.453,134.105 297.453,154.256 C297.453,175.761 280.969,187.791 251.081,187.791 L212.411,187.791 L212.411,122.977 Z M212.411,284.938 L212.411,213.507 L258.013,213.507 C290.674,213.507 307.621,225.537 307.621,248.997 C307.621,272.456 291.137,284.938 260.016,284.938 L212.411,284.938 Z" id="Shape" stroke="#FFFFFF" fill="url(#linearGradient-2)" fill-rule="nonzero"></path>
        </g>
    </g>
</svg>