<?xml version="1.0" encoding="UTF-8"?>
<svg width="437px" height="437px" viewBox="0 0 437 437" version="1.1" xmlns="http://www.w3.org/2000/svg" xmlns:xlink="http://www.w3.org/1999/xlink">
    <!-- Generator: Sketch 52.6 (67491) - http://www.bohemiancoding.com/sketch -->
    <title>Slice</title>
    <desc>Created with Sketch.</desc>
    <g id="Page-1" stroke="none" stroke-width="1" fill="none" fill-rule="evenodd">
        <g id="mongodb-alt" transform="translate(123.000000, 5.000000)">
            <g id="Group">
                <path d="M105.159,426.950943 L93.81,423.067395 C93.81,423.067395 95.196,365.141566 74.43,360.984699 C60.591,344.906872 76.65,-320.852706 126.48,358.7651 C126.48,358.7651 109.314,367.355158 106.269,382.048363 C102.945,396.462242 105.159,426.950943 105.159,426.950943 Z" id="Shape" fill="#FFFFFF"></path>
                <path d="M105.159,426.950943 L93.81,423.067395 C93.81,423.067395 95.196,365.141566 74.43,360.984699 C60.591,344.906872 76.65,-320.852706 126.48,358.7651 C126.48,358.7651 109.314,367.355158 106.269,382.048363 C102.945,396.462242 105.159,426.950943 105.159,426.950943 Z" id="Shape" fill="#A6A385"></path>
                <path d="M111.252,370.962382 C111.252,370.962382 210.642,305.548785 187.383,169.456427 C164.961,70.5115662 112.083,38.0825932 106.269,25.6089871 C99.903,16.7396014 93.81,1.22042907 93.81,1.22042907 L97.965,276.444706 C97.965,276.724033 89.382,360.705372 111.255,370.965386" id="Shape" fill="#FFFFFF"></path>
                <path d="M111.252,370.962382 C111.252,370.962382 210.642,305.548785 187.383,169.456427 C164.961,70.5115662 112.083,38.0825932 106.269,25.6089871 C99.903,16.7396014 93.81,1.22042907 93.81,1.22042907 L97.965,276.444706 C97.965,276.724033 89.382,360.705372 111.255,370.965386" id="Shape" fill="#499D4A"></path>
                <path d="M87.999,374.563599 C87.999,374.563599 -5.301,310.813951 0.237,198.56351 C5.496,86.3100657 71.385,31.1534795 84.12,21.175796 C92.427,12.3064103 92.703,8.97851348 93.258,0.109127784 C99.072,12.5827339 97.965,186.645555 98.793,207.153569 C101.283,286.146066 94.365,359.600077 87.999,374.563599 Z" id="Shape" fill="#FFFFFF"></path>
                <path d="M87.999,374.563599 C87.999,374.563599 -5.301,310.813951 0.237,198.56351 C5.496,86.3100657 71.385,31.1534795 84.12,21.175796 C92.427,12.3064103 92.703,8.97851348 93.258,0.109127784 C99.072,12.5827339 97.965,186.645555 98.793,207.153569 C101.283,286.146066 94.365,359.600077 87.999,374.563599 Z" id="Shape" fill="#58AA50"></path>
            </g>
        </g>
    </g>
</svg>