<svg width="177" height="206" viewBox="0 0 177 206" fill="none" xmlns="http://www.w3.org/2000/svg">
<path d="M128.644 23.8066V69.0713L71.7539 102.602L88.0723 112.996L128.644 90.4189V126.408L88.0723 149.544L39.5654 121.267L30.8477 126.408V171.863L0 153.902V51.3008L87.96 0L128.644 23.8066ZM87.7832 36.127L30 69.21L29.8213 69.3125V91.0352L30.3545 90.7256L97.3027 51.9434L97.4795 51.8408V41.0264L97.29 40.9268L88.125 36.1211L87.9521 36.0303L87.7832 36.127Z" fill="black"/>
<path d="M145.93 136.067V33.2031L176.411 50.9074V153.771L87.8909 205.203L48.4111 182.232V146.376L87.8909 169.346L145.93 136.067Z" fill="black"/>
</svg>
