<?xml version="1.0" encoding="UTF-8"?>
<svg width="186px" height="16px" viewBox="0 0 186 16" version="1.1" xmlns="http://www.w3.org/2000/svg" xmlns:xlink="http://www.w3.org/1999/xlink">
    <!-- Generator: Sketch 63.1 (92452) - https://sketch.com -->
    <title>2021CloudSeven-logo</title>
    <desc>Created with Sketch.</desc>
    <defs>
        <linearGradient x1="12.3630362%" y1="65.416033%" x2="100%" y2="27.1193772%" id="linearGradient-1">
            <stop stop-color="#FFF" offset="0%"></stop>
            <stop stop-color="#FFF" offset="100%"></stop>
        </linearGradient>
    </defs>
    <g id="UI" stroke="none" stroke-width="1" fill="none" fill-rule="evenodd">
        <g id="2021CloudSeven-logo">
            <path d="M69.1511901,2.4220369e-05 C73.8642023,2.4220369e-05 77.1961924,3.46595903 77.1961924,7.89102045 C77.1961924,12.4468719 73.8642023,16 69.1511901,16 C64.4381778,16 61.1061877,12.4468719 61.1061877,7.89102045 C61.1061877,3.46595903 64.4381778,2.4220369e-05 69.1511901,2.4220369e-05 Z M120.761086,1.21101845e-05 C122.602449,1.21101845e-05 123.654047,0.549814487 124.311677,1.02937779 C124.793939,1.37815111 124.859702,1.79231942 124.596772,2.27188272 L124.596772,2.27188272 L124.202072,2.99122769 C123.873257,3.62337932 123.412916,3.53618599 122.952697,3.29640433 C122.316867,2.92583269 121.922898,2.59401363 120.717244,2.59401363 C119.270459,2.59401363 118.349777,3.29156026 118.349777,4.3378802 C118.349777,7.23705838 125.605624,6.49591508 125.605624,11.4223381 C125.605624,13.9290252 123.720297,15.9999879 120.454192,15.9999879 C118.240051,15.9999879 116.289204,14.9996866 115.52197,14.4111317 C115.171234,14.105955 114.951902,13.7353834 115.390444,13.1467073 L115.390444,13.1467073 L115.872706,12.4492818 C116.223441,11.9697185 116.595976,11.9479202 117.144001,12.2530968 C117.648306,12.601749 118.919601,13.4059864 120.454192,13.4059864 C121.900977,13.4059864 122.777817,12.6866414 122.777817,11.6403215 C122.777817,8.69754663 115.52197,9.30789993 115.52197,4.49046853 C115.52197,1.76567701 117.801753,1.21101845e-05 120.761086,1.21101845e-05 Z M40.0230814,0 C42.5659159,0 44.2757529,0.959126613 45.1087504,1.54768158 C45.5690912,1.89645489 45.5910122,2.33242154 45.2841183,2.81198484 L45.2841183,2.81198484 L44.8895406,3.44413648 C44.5826467,3.94549811 44.166148,3.98909478 43.6400443,3.6621198 C42.9604937,3.22615315 41.7329184,2.57220319 40.1326863,2.57220319 C36.7349333,2.57220319 34.9154913,5.03541472 34.9154913,7.89099623 C34.9154913,10.7901744 36.8006962,13.4277726 40.1546073,13.4277726 C41.9082863,13.4277726 43.2454665,12.599436 43.9688591,12.076276 C44.4511208,11.7275027 44.8895406,11.7275027 45.2402764,12.2288643 L45.2402764,12.2288643 L45.6786961,12.8174193 C46.0075109,13.2533859 45.9855899,13.7111509 45.5471702,14.0817226 C44.6703307,14.7792692 42.8070468,15.9999758 40.0450024,15.9999758 C35.1566222,15.9999758 32,12.4904443 32,7.93459289 C32,3.44413648 35.3100691,0 40.0230814,0 Z M82.9638599,0.242252131 C83.5776476,0.242252131 83.8845414,0.569227113 83.8845414,1.15778208 L83.8845414,1.15778208 L83.8845414,10.1385738 C83.8845414,12.2313348 85.2436426,13.4083236 87.3261364,13.4083236 C89.4086302,13.4083236 90.7896524,12.2313348 90.7896524,10.1385738 L90.7896524,10.1385738 L90.7896524,1.15778208 C90.7896524,0.569227113 91.0965462,0.242252131 91.6884129,0.242252131 L91.6884129,0.242252131 L92.6967783,0.242252131 C93.288645,0.242252131 93.5955388,0.569227113 93.5955388,1.15778208 L93.5955388,1.15778208 L93.5955388,10.1604932 C93.5955388,13.626307 91.0965462,15.9806479 87.3480574,15.9806479 C83.5776476,15.9806479 81.078655,13.626307 81.078655,10.1604932 L81.078655,10.1604932 L81.078655,1.15778208 C81.078655,0.569227113 81.3855488,0.242252131 81.9774155,0.242252131 L81.9774155,0.242252131 Z M52.4181819,0.242227911 C53.0100485,0.242227911 53.3169424,0.569202893 53.3169424,1.15775786 L53.3169424,1.15775786 L53.3169424,13.2994289 L57.5428216,13.2994289 C58.1566092,13.2994289 58.4635031,13.6046055 58.4635031,14.1931605 L58.4635031,14.1931605 L58.4635031,14.8035138 C58.4635031,15.4138671 58.1566092,15.7190437 57.5428216,15.7190437 L57.5428216,15.7190437 L51.4098165,15.7190437 C50.8179498,15.7190437 50.511056,15.4138671 50.511056,14.8035138 L50.511056,14.8035138 L50.511056,1.15775786 C50.511056,0.569202893 50.8179498,0.242227911 51.4098165,0.242227911 L51.4098165,0.242227911 Z M166.928488,0.242227911 C167.520476,0.242227911 167.849169,0.569202893 167.849169,1.15775786 L167.849169,1.15775786 L167.849169,1.76811116 C167.849169,2.35666613 167.520476,2.66184278 166.928488,2.66184278 L166.928488,2.66184278 L162.556468,2.66184278 L162.556468,6.71633255 L166.409813,6.71633255 C167.001558,6.71633255 167.330372,7.0215092 167.330372,7.61006417 L167.330372,7.61006417 L167.330372,8.22041747 C167.330372,8.83077077 167.001558,9.13594742 166.409813,9.13594742 L166.409813,9.13594742 L162.556468,9.13594742 L162.556468,13.2994289 L167.15744,13.2994289 C167.749429,13.2994289 168.078122,13.6046055 168.078122,14.1931605 L168.078122,14.1931605 L168.078122,14.8035138 C168.078122,15.4138671 167.749429,15.7190437 167.15744,15.7190437 L167.15744,15.7190437 L160.649464,15.7190437 C160.057598,15.7190437 159.750582,15.4138671 159.750582,14.8035138 L159.750582,14.8035138 L159.750582,1.15775786 C159.750582,0.569202893 160.057598,0.242227911 160.649464,0.242227911 L160.649464,0.242227911 Z M137.456938,0.242227911 C138.048926,0.242227911 138.377619,0.569202893 138.377619,1.15775786 L138.377619,1.15775786 L138.377619,1.76811116 C138.377619,2.35666613 138.048926,2.66184278 137.456938,2.66184278 L137.456938,2.66184278 L133.084919,2.66184278 L133.084919,6.71633255 L136.938263,6.71633255 C137.530008,6.71633255 137.858823,7.0215092 137.858823,7.61006417 L137.858823,7.61006417 L137.858823,8.22041747 C137.858823,8.83077077 137.530008,9.13594742 136.938263,9.13594742 L136.938263,9.13594742 L133.084919,9.13594742 L133.084919,13.2994289 L137.68589,13.2994289 C138.277879,13.2994289 138.606572,13.6046055 138.606572,14.1931605 L138.606572,14.1931605 L138.606572,14.8035138 C138.606572,15.4138671 138.277879,15.7190437 137.68589,15.7190437 L137.68589,15.7190437 L131.177793,15.7190437 C130.586048,15.7190437 130.279032,15.4138671 130.279032,14.8035138 L130.279032,14.8035138 L130.279032,1.15775786 C130.279032,0.569202893 130.586048,0.242227911 131.177793,0.242227911 L131.177793,0.242227911 Z M175.107573,0.242227911 C175.633555,0.242227911 175.96237,0.416614568 176.203623,0.85258121 L176.203623,0.85258121 L181.72759,9.17954408 C182.319456,10.095074 183.020928,11.5772395 183.020928,11.5772395 L183.020928,11.5772395 L183.06477,11.5772395 C183.06477,11.5772395 182.911445,10.095074 182.911445,9.17954408 L182.911445,9.17954408 L182.911445,1.15775786 C182.911445,0.569202893 183.240138,0.242227911 183.832005,0.242227911 L183.832005,0.242227911 L184.818571,0.242227911 C185.410316,0.242227911 185.73913,0.569202893 185.73913,1.15775786 L185.73913,1.15775786 L185.73913,14.8035138 C185.73913,15.4138671 185.410316,15.7190437 184.818571,15.7190437 L184.818571,15.7190437 L183.634716,15.7190437 C183.152454,15.7190437 182.801718,15.5446571 182.560709,15.1086904 L182.560709,15.1086904 L177.014699,6.80352588 C176.444632,5.88799593 175.721361,4.40570935 175.721361,4.40570935 L175.721361,4.40570935 L175.677397,4.40570935 C175.677397,4.40570935 175.830844,5.88799593 175.830844,6.80352588 L175.830844,6.80352588 L175.830844,14.8035138 C175.830844,15.4138671 175.524072,15.7190437 174.932084,15.7190437 L174.932084,15.7190437 L173.923718,15.7190437 C173.331973,15.7190437 173.024958,15.4138671 173.024958,14.8035138 L173.024958,14.8035138 L173.024958,1.15775786 C173.024958,0.569202893 173.331973,0.242227911 173.923718,0.242227911 L173.923718,0.242227911 Z M103.798601,0.242240021 C108.599176,0.242240021 111.733999,3.0760232 111.733999,7.95872849 C111.733999,12.841676 108.599176,15.7189347 103.798601,15.7189347 L103.798601,15.7189347 L99.3923612,15.7189347 C98.8004946,15.7189347 98.4936008,15.4138792 98.4936008,14.8035259 L98.4936008,14.8035259 L98.4936008,1.15776997 C98.4936008,0.569215003 98.8004946,0.242240021 99.3923612,0.242240021 L99.3923612,0.242240021 Z M144.315369,0.242252131 C144.841473,0.242252131 145.192209,0.482033784 145.345656,1.00507265 L145.345656,1.00507265 L148.524199,10.3347588 C148.809294,11.2284904 149.116066,12.6017853 149.116066,12.6017853 L149.116066,12.6017853 L149.159908,12.6017853 C149.159908,12.6017853 149.44488,11.2284904 149.751774,10.3347588 L149.751774,10.3347588 L152.974281,1.00507265 C153.105685,0.482033784 153.456421,0.242252131 153.982525,0.242252131 L153.982525,0.242252131 L155.100495,0.242252131 C155.780046,0.242252131 156.06514,0.656420441 155.845809,1.28857207 L155.845809,1.28857207 L150.869745,14.999723 C150.694377,15.5010846 150.365562,15.7189468 149.839458,15.7189468 L149.839458,15.7189468 L148.436515,15.7189468 C147.910411,15.7189468 147.581597,15.5010846 147.406229,14.999723 L147.406229,14.999723 L142.408244,1.28857207 C142.189034,0.656420441 142.474007,0.242252131 143.153557,0.242252131 L143.153557,0.242252131 Z M69.1511901,2.57222741 C66.1699358,2.57222741 64.021679,4.88285062 64.021679,7.89102045 C64.021679,11.0299803 66.1699358,13.4277968 69.1511901,13.4277968 C72.1324443,13.4277968 74.2807011,11.0299803 74.2807011,7.89102045 C74.2807011,4.88285062 72.1324443,2.57222741 69.1511901,2.57222741 Z M103.645155,2.66185489 L101.299487,2.66185489 L101.299487,13.299441 L103.645155,13.299441 C106.801777,13.299441 108.818386,11.4464616 108.818386,7.95872849 C108.818386,4.51459202 106.757813,2.66185489 103.645155,2.66185489 L103.645155,2.66185489 Z" id="Combined-Shape" fill="#FFF"></path>
            <path d="M12.3619637,2.25625736 C15.2465942,-0.135924049 19.5702548,0.26763252 22.0208704,3.15378481 C24.4708663,6.03920203 24.122018,10.3186903 21.2381313,12.7100142 L21.2381313,12.7100142 L17.5293561,15.785571 C17.1369948,16.110842 16.5504983,16.0604893 16.2208652,15.6723693 L16.2208652,15.6723693 L15.609327,14.9521176 C15.2799418,14.5641201 15.3321327,13.9837779 15.7256097,13.6576493 L15.7256097,13.6576493 L19.4315337,10.5844202 C21.1372207,9.17001202 21.3441246,6.63449085 19.8894745,4.92127437 C18.4345764,3.20756785 15.8725128,2.96891327 14.1665778,4.38356649 L14.1665778,4.38356649 L7.7030914,9.74337108 C7.30899451,10.0701122 6.72361374,10.0197595 6.39348476,9.63114952 L6.39348476,9.63114952 L5.78194657,8.91077532 C5.45268538,8.52290036 5.50438038,7.94280311 5.89760948,7.61679703 L5.89760948,7.61679703 Z M6.12281421,0.214529802 C6.5151753,-0.110862861 7.10167145,-0.0605103067 7.43130435,0.327608653 L7.43130435,0.327608653 L8.04284218,1.04798096 C8.37235111,1.4358549 8.3200363,2.01631817 7.92668346,2.3424459 L7.92668346,2.3424459 L4.22063774,5.41554438 C2.51495174,6.83007137 2.3080479,9.36558589 3.76269719,11.0787979 C5.21771838,12.7923774 7.7797805,13.0311538 9.48571444,11.6165043 L9.48571444,11.6165043 L15.949197,6.25671382 C16.3432937,5.92985101 16.9285501,5.98020356 17.2586789,6.36893509 L17.2586789,6.36893509 L17.8702167,7.08918488 C18.1994777,7.47705882 18.1477828,8.05715455 17.7546779,8.38315977 L17.7546779,8.38315977 L11.2902035,13.7438079 C8.40557474,16.1358605 4.08191671,15.7324275 1.6313025,12.8461603 C-0.818691869,9.96075063 -0.469843812,5.68139607 2.41404117,3.28995602 L2.41404117,3.28995602 Z" id="Fill-1" fill="url(#linearGradient-1)"></path>
        </g>
    </g>
</svg>