<?xml version="1.0" encoding="UTF-8"?>
<svg xmlns="http://www.w3.org/2000/svg" id="Laag_1" viewBox="70.75 41.07 546.5 110.07">
  <defs>
    <style>.cls-1{fill:#FFF;}.cls-2{fill:#FFF;}</style>
  </defs>
  <path class="cls-2" d="m201.75,41.1h6.07l17.66,42.21h-8.55l-4.2-10.89h-15.94l-4.11,10.89h-8.61l17.66-42.21Zm-2.18,24.04h10.37l-5.22-13.48h-.02l-5.13,13.48Z"></path>
  <path class="cls-2" d="m260.59,73c-1.06,3.45-3.02,6.21-5.89,8.27s-6.17,3.09-9.9,3.09c-4.64,0-8.59-1.64-11.85-4.92-3.26-3.28-4.89-7.26-4.89-11.94s1.63-8.67,4.89-11.97c3.26-3.3,7.21-4.95,11.85-4.95,3.77,0,7.1,1.04,10,3.13,2.9,2.09,4.88,4.88,5.96,8.37h-8.47c-.72-1.49-1.73-2.62-3.02-3.4-1.29-.78-2.81-1.17-4.56-1.17-2.51,0-4.64.95-6.39,2.84s-2.63,4.2-2.63,6.91c0,2.88.9,5.29,2.7,7.23,1.8,1.94,4.03,2.91,6.69,2.91,1.47,0,2.84-.4,4.11-1.2,1.27-.8,2.25-1.88,2.94-3.23h8.47Z"></path>
  <path class="cls-2" d="m279.7,84.37c-4.35,0-8.05-1.64-11.12-4.92s-4.6-7.26-4.6-11.94,1.53-8.67,4.6-11.97,6.78-4.95,11.14-4.95,7.79,1.51,10.73,4.54v-3.48h6.99v31.65h-6.99v-3.45c-2.97,2.99-6.56,4.5-10.75,4.51Zm1.25-26.88c-2.66,0-4.88.96-6.66,2.88-1.78,1.92-2.67,4.3-2.67,7.15s.89,5.19,2.67,7.1c1.78,1.91,3.99,2.87,6.63,2.87s4.88-.96,6.67-2.87c1.79-1.91,2.69-4.29,2.69-7.13s-.89-5.22-2.67-7.13-4-2.87-6.66-2.87Z"></path>
  <path class="cls-2" d="m317.73,84.37c-4.33,0-8.02-1.64-11.07-4.92-3.06-3.28-4.58-7.26-4.58-11.94s1.59-8.67,4.76-11.97,7.02-4.95,11.53-4.95c3.62.04,6.76,1.24,9.42,3.59v-13.09h7.61v42.21h-6.99v-3.43c-2.95,2.99-6.51,4.49-10.67,4.49Zm1.23-26.88c-2.62,0-4.82.96-6.59,2.88-1.77,1.92-2.66,4.3-2.66,7.15s.88,5.19,2.65,7.1c1.76,1.91,3.96,2.87,6.57,2.87s4.85-.96,6.63-2.87c1.78-1.91,2.67-4.29,2.67-7.13s-.89-5.22-2.66-7.13c-1.77-1.91-3.98-2.87-6.62-2.87Z"></path>
  <path class="cls-2" d="m356.07,84.37c-4.57,0-8.47-1.64-11.69-4.92-3.22-3.28-4.83-7.26-4.83-11.94s1.61-8.67,4.83-11.97c3.22-3.3,7.12-4.95,11.69-4.95s8.49,1.65,11.71,4.95c3.22,3.3,4.83,7.29,4.83,11.97,0,1.13-.09,2.25-.28,3.34h-24.68c.43,1.37,1.14,2.62,2.15,3.73,1.73,1.89,3.88,2.84,6.46,2.84,1.6,0,3.06-.37,4.39-1.11,1.33-.74,2.31-1.74,2.94-2.98h8.02c-1.02,3.36-2.94,6.04-5.77,8.04-2.82,2-6.08,2.99-9.78,2.99Zm8.61-19.59c-.37-1.67-1.12-3.13-2.26-4.37-1.71-1.91-3.83-2.87-6.35-2.87s-4.64.96-6.35,2.87c-1.1,1.26-1.86,2.72-2.28,4.37h17.25Z"></path>
  <path class="cls-2" d="m377.41,51.66h7.08v2.62c2.32-2.47,5.06-3.7,8.23-3.68,3.5,0,6.43,1.34,8.76,4.01l.56.67.61-.67c2.47-2.67,5.67-4.01,9.6-4.01s6.97,1.22,9.25,3.65c2.28,2.43,3.42,5.73,3.42,9.89v19.17h-7.61v-17.91c0-2.58-.52-4.54-1.55-5.88-1.03-1.34-2.54-2.01-4.51-2.01-2.1,0-3.68.76-4.72,2.28-1.04,1.52-1.56,3.81-1.56,6.85v16.66h-7.61v-17.05c0-2.86-.53-5.03-1.58-6.52-1.06-1.49-2.6-2.23-4.64-2.23s-3.57.76-4.59,2.28c-1.02,1.52-1.53,3.81-1.53,6.85v16.66h-7.61v-31.65Z"></path>
  <path class="cls-2" d="m430.98,41.1h7.61v6.96h-7.61v-6.96Zm0,10.56h7.61v31.65h-7.61v-31.65Z"></path>
  <path class="cls-2" d="m459.93,84.37c-4.57,0-8.47-1.64-11.69-4.92-3.22-3.28-4.83-7.26-4.83-11.94s1.61-8.67,4.83-11.97c3.22-3.3,7.12-4.95,11.69-4.95s8.49,1.65,11.71,4.95c3.22,3.3,4.83,7.29,4.83,11.97,0,1.13-.09,2.25-.28,3.34h-24.68c.43,1.37,1.14,2.62,2.15,3.73,1.73,1.89,3.88,2.84,6.46,2.84,1.6,0,3.06-.37,4.39-1.11,1.33-.74,2.31-1.74,2.94-2.98h8.02c-1.02,3.36-2.94,6.04-5.77,8.04-2.82,2-6.08,2.99-9.78,2.99Zm8.61-19.59c-.37-1.67-1.12-3.13-2.26-4.37-1.71-1.91-3.83-2.87-6.35-2.87s-4.64.96-6.35,2.87c-1.1,1.26-1.86,2.72-2.28,4.37h17.25Z"></path>
  <path class="cls-2" d="m494.31,51.66h8.05l7.75,21.84h0l7.71-21.84h8.05l-12.79,31.65h-6.02l-12.76-31.65Z"></path>
  <path class="cls-2" d="m532.43,79.45c-3.28-3.28-4.92-7.26-4.92-11.94s1.64-8.67,4.92-11.97c3.28-3.3,7.25-4.95,11.91-4.95s8.66,1.65,11.94,4.95c3.28,3.3,4.92,7.29,4.92,11.97s-1.64,8.66-4.92,11.94c-3.28,3.28-7.26,4.92-11.94,4.92s-8.63-1.64-11.91-4.92Zm18.48-4.86c1.76-1.89,2.65-4.25,2.65-7.08s-.88-5.19-2.65-7.1c-1.76-1.91-3.96-2.87-6.57-2.87s-4.78.96-6.55,2.87c-1.76,1.91-2.65,4.28-2.65,7.1s.88,5.18,2.65,7.08c1.76,1.89,3.95,2.84,6.55,2.84s4.81-.95,6.57-2.84Z"></path>
  <path class="cls-2" d="m568.96,79.45c-3.28-3.28-4.92-7.26-4.92-11.94s1.64-8.67,4.92-11.97c3.28-3.3,7.25-4.95,11.91-4.95s8.66,1.65,11.94,4.95c3.28,3.3,4.92,7.29,4.92,11.97s-1.64,8.66-4.92,11.94c-3.28,3.28-7.26,4.92-11.94,4.92s-8.63-1.64-11.91-4.92Zm18.48-4.86c1.76-1.89,2.65-4.25,2.65-7.08s-.88-5.19-2.65-7.1c-1.76-1.91-3.96-2.87-6.57-2.87s-4.78.96-6.55,2.87c-1.76,1.91-2.65,4.28-2.65,7.1s.88,5.18,2.65,7.08c1.76,1.89,3.95,2.84,6.55,2.84s4.81-.95,6.57-2.84Z"></path>
  <path class="cls-2" d="m602.73,51.66h7.08v2.4l.36-.5c1.41-1.97,3.59-2.95,6.55-2.95h.5v7.24c-2.14.15-3.77.71-4.9,1.67-1.32,1.15-1.98,2.97-1.98,5.46v18.33h-7.61v-31.65Z"></path>
  <path class="cls-1" d="m94.59,149.76l-23.84-82.27h15.49l14.69,58h-.01l13.76-58h11.35l13.84,58h-.01l14.62-58h15.49l-23.79,82.27h-12.22l-13.64-55.12h-.01l-13.5,55.12h-12.22Z"></path>
  <path class="cls-1" d="m195.72,151.12c-5.89,0-10.9-2.11-15.05-6.33-4.15-4.22-6.23-9.35-6.23-15.38s2.08-11.17,6.23-15.41c4.15-4.25,9.17-6.37,15.05-6.37s10.94,2.12,15.09,6.37c4.15,4.25,6.23,9.38,6.23,15.41,0,1.46-.12,2.89-.36,4.31h-31.79c.55,1.77,1.47,3.37,2.76,4.81,2.22,2.44,5,3.66,8.33,3.66,2.06,0,3.94-.48,5.65-1.44,1.71-.96,2.97-2.24,3.79-3.84h10.33c-1.32,4.33-3.79,7.78-7.43,10.35-3.64,2.57-7.84,3.86-12.6,3.86Zm11.09-25.23c-.48-2.15-1.45-4.03-2.91-5.63-2.2-2.46-4.93-3.7-8.18-3.7s-5.98,1.23-8.18,3.7c-1.41,1.63-2.39,3.5-2.94,5.63h22.21Z"></path>
  <path class="cls-1" d="m242.76,151.12c-5.89,0-10.9-2.11-15.05-6.33-4.15-4.22-6.23-9.35-6.23-15.38s2.08-11.17,6.23-15.41c4.15-4.25,9.17-6.37,15.05-6.37s10.94,2.12,15.09,6.37c4.15,4.25,6.23,9.38,6.23,15.41,0,1.46-.12,2.89-.36,4.31h-31.79c.55,1.77,1.47,3.37,2.76,4.81,2.22,2.44,5,3.66,8.33,3.66,2.06,0,3.94-.48,5.65-1.44,1.71-.96,2.97-2.24,3.79-3.84h10.33c-1.32,4.33-3.79,7.78-7.43,10.35-3.64,2.57-7.84,3.86-12.6,3.86Zm11.09-25.23c-.48-2.15-1.45-4.03-2.91-5.63-2.2-2.46-4.93-3.7-8.18-3.7s-5.98,1.23-8.18,3.7c-1.41,1.63-2.39,3.5-2.94,5.63h22.21Z"></path>
  <path class="cls-1" d="m270.9,108.99h9.11v3.09l.47-.65c1.82-2.54,4.63-3.8,8.43-3.8h.65v9.33c-2.75.19-4.86.91-6.32,2.15-1.7,1.48-2.55,3.83-2.55,7.03v23.61h-9.8v-40.77Z"></path>
  <path class="cls-1" d="m293.22,95.39h9.8v17.15c3.73-3.28,8.05-4.92,12.95-4.92,5.62,0,10.41,2.12,14.35,6.37,3.95,4.25,5.92,9.38,5.92,15.41s-1.97,11.15-5.92,15.38c-3.95,4.22-8.74,6.33-14.39,6.33-5.31-.02-9.88-1.91-13.71-5.67v4.31h-9.01v-54.37Zm21.17,46.87c3.42,0,6.28-1.23,8.58-3.7,2.3-2.46,3.44-5.51,3.44-9.15s-1.15-6.73-3.44-9.2c-2.3-2.48-5.14-3.71-8.54-3.71s-6.24,1.23-8.54,3.7-3.44,5.53-3.44,9.19,1.15,6.72,3.44,9.19c2.27,2.46,5.11,3.7,8.5,3.7Z"></path>
  <path class="cls-1" d="m360.5,151.12c-5.6,0-10.37-2.11-14.32-6.33s-5.92-9.35-5.92-15.38,1.97-11.17,5.92-15.41,8.73-6.37,14.35-6.37,10.04,1.95,13.82,5.85v-4.49h9.01v40.77h-9.01v-4.45c-3.83,3.85-8.45,5.79-13.85,5.81Zm1.61-34.63c-3.42,0-6.28,1.24-8.58,3.71-2.3,2.48-3.44,5.54-3.44,9.2s1.15,6.69,3.44,9.15c2.3,2.46,5.14,3.7,8.54,3.7s6.29-1.23,8.59-3.7c2.31-2.46,3.46-5.53,3.46-9.19s-1.15-6.72-3.44-9.19c-2.3-2.46-5.16-3.7-8.58-3.7Z"></path>
  <path class="cls-1" d="m409.02,151.12c-5.6,0-10.37-2.11-14.32-6.33-3.95-4.22-5.92-9.35-5.92-15.38s1.97-11.17,5.92-15.41c3.95-4.25,8.73-6.37,14.35-6.37s10.04,1.95,13.82,5.85v-4.49h9.01v40.77h-9.01v-4.45c-3.83,3.85-8.45,5.79-13.85,5.81Zm1.61-34.63c-3.42,0-6.28,1.24-8.58,3.71s-3.44,5.54-3.44,9.2,1.15,6.69,3.44,9.15,5.14,3.7,8.54,3.7,6.29-1.23,8.59-3.7c2.31-2.46,3.46-5.53,3.46-9.19s-1.15-6.72-3.44-9.19c-2.3-2.46-5.16-3.7-8.58-3.7Z"></path>
  <path class="cls-1" d="m439.95,108.99h9.11v3.09l.47-.65c1.82-2.54,4.63-3.8,8.43-3.8h.65v9.33c-2.75.19-4.86.91-6.32,2.15-1.7,1.48-2.55,3.83-2.55,7.03v23.61h-9.8v-40.77Z"></path>
  <path class="cls-1" d="m462.81,95.39h9.8v16.47c3.04-2.87,6.58-4.28,10.62-4.23,4.81,0,8.63,1.63,11.47,4.88,2.83,3.25,4.25,7.66,4.25,13.21v24.04h-9.8v-21.89c0-3.71-.69-6.53-2.06-8.45-1.38-1.93-3.39-2.89-6.05-2.89-2.82,0-4.93.98-6.33,2.94-1.4,1.96-2.1,4.9-2.1,8.83v21.46h-9.8v-54.37Z"></path>
  <path class="cls-1" d="m526.47,151.12c-5.89,0-10.9-2.11-15.05-6.33-4.15-4.22-6.23-9.35-6.23-15.38s2.08-11.17,6.23-15.41c4.15-4.25,9.17-6.37,15.05-6.37s10.94,2.12,15.09,6.37c4.15,4.25,6.23,9.38,6.23,15.41,0,1.46-.12,2.89-.36,4.31h-31.79c.55,1.77,1.47,3.37,2.76,4.81,2.22,2.44,5,3.66,8.33,3.66,2.06,0,3.94-.48,5.65-1.44,1.71-.96,2.97-2.24,3.79-3.84h10.33c-1.32,4.33-3.79,7.78-7.43,10.35-3.64,2.57-7.84,3.86-12.6,3.86Zm11.09-25.23c-.48-2.15-1.45-4.03-2.91-5.63-2.2-2.46-4.93-3.7-8.18-3.7s-5.98,1.23-8.18,3.7c-1.41,1.63-2.39,3.5-2.94,5.63h22.21Z"></path>
  <path class="cls-1" d="m553.89,95.39h9.8v8.97h-9.8v-8.97Zm0,13.6h9.8v40.77h-9.8v-40.77Z"></path>
  <path class="cls-1" d="m590.31,151.12c-5.57,0-10.33-2.11-14.26-6.33-3.94-4.22-5.9-9.35-5.9-15.38s2.05-11.17,6.14-15.41c4.09-4.25,9.04-6.37,14.86-6.37,4.67.05,8.71,1.59,12.13,4.63v-16.87h9.8v54.37h-9.01v-4.41c-3.8,3.85-8.39,5.78-13.74,5.78Zm1.58-34.63c-3.37,0-6.2,1.24-8.49,3.71-2.28,2.48-3.43,5.54-3.43,9.2s1.14,6.69,3.41,9.15c2.27,2.46,5.1,3.7,8.47,3.7s6.24-1.23,8.54-3.7c2.3-2.46,3.44-5.53,3.44-9.19s-1.14-6.72-3.43-9.19c-2.28-2.46-5.13-3.7-8.52-3.7Z"></path>
</svg>
