<?xml version="1.0" encoding="UTF-8"?>
<svg width="2855px" height="2855px" viewBox="0 0 2855 2855" version="1.1" xmlns="http://www.w3.org/2000/svg" xmlns:xlink="http://www.w3.org/1999/xlink" style="background: #FFFFFF;">
    <!-- Generator: Sketch 52.6 (67491) - http://www.bohemiancoding.com/sketch -->
    <title>Slice</title>
    <desc>Created with Sketch.</desc>
    <g id="Page-1" stroke="none" stroke-width="1" fill="none" fill-rule="evenodd">
        <g id="java" transform="translate(753.000000, 175.000000)">
            <path d="M1289.81558,1973.0291 L1280.40205,1973.0291 L1280.40205,1967.76085 L1305.75435,1967.76085 L1305.75435,1973.0291 L1296.39627,1973.0291 L1296.39627,1999.3149 L1289.81558,1999.3149 L1289.81558,1973.0291 Z M1340.38154,1974.40162 L1340.23366,1974.40162 L1330.89869,1999.32414 L1326.62864,1999.32414 L1317.35837,1974.40162 L1317.24745,1974.40162 L1317.24745,1999.32414 L1311.04109,1999.32414 L1311.04109,1967.77009 L1320.17272,1967.77009 L1328.76829,1990.11394 L1337.33613,1967.77009 L1346.43541,1967.77009 L1346.43541,1999.32414 L1340.37692,1999.32414 L1340.38154,1974.40162 Z" id="Shape" fill="#E76F00" fill-rule="nonzero"></path>
            <path d="M446.789227,1327.80244 C446.789227,1327.80244 381.268828,1365.90483 493.417864,1378.79818 C629.28327,1394.29793 698.722507,1392.0751 848.447108,1363.73745 C848.447108,1363.73745 887.811105,1388.41967 942.785761,1409.79767 C607.142754,1553.64864 183.159506,1401.46552 446.789227,1327.80244 M405.775435,1140.08636 C405.775435,1140.08636 332.287963,1194.48336 444.520182,1206.09199 C589.65586,1221.06491 704.272655,1222.28955 902.603798,1184.09936 C902.603798,1184.09936 930.040292,1211.91017 973.175247,1227.11878 C567.358221,1345.78381 115.356199,1236.47686 405.775435,1140.08636" id="Shape" fill="#5382A1" fill-rule="nonzero"></path>
            <path d="M751.534407,821.657593 C834.236696,916.874287 729.809806,1002.56192 729.809806,1002.56192 C729.809806,1002.56192 939.795798,894.156112 843.359087,758.406239 C753.285869,631.806484 684.211712,568.910968 1058.1512,352.039281 C1058.15582,352.03466 471.189544,498.630659 751.534407,821.657593" id="Path" fill="#E76F00"></path>
            <path d="M1195.4492,1466.64857 C1195.4492,1466.64857 1243.93559,1506.60409 1142.0504,1537.50653 C948.312802,1596.19669 335.693841,1613.91927 165.510867,1539.84952 C104.334465,1513.23099 219.057549,1476.29778 255.145065,1468.54791 C292.780706,1460.38674 314.288107,1461.90714 314.288107,1461.90714 C246.253737,1413.97993 -125.4583,1556.01011 125.476785,1596.69117 C809.813272,1707.67102 1372.96151,1546.71673 1195.4492,1466.64857 M478.297061,945.590873 C478.297061,945.590873 166.680049,1019.60517 367.9457,1046.48249 C452.926276,1057.86006 622.332876,1055.28601 780.126218,1042.06455 C909.087443,1031.18608 1038.58474,1008.06123 1038.58474,1008.06123 C1038.58474,1008.06123 993.111416,1027.53527 960.212579,1049.99466 C643.770958,1133.22377 32.4644379,1094.50213 208.451729,1009.37367 C357.284425,937.429706 478.297061,945.590873 478.297061,945.590873 M1037.30002,1258.05358 C1358.97754,1090.89754 1210.25114,930.257492 1106.43426,951.903531 C1080.98953,957.199509 1069.64431,961.788432 1069.64431,961.788432 C1069.64431,961.788432 1079.09481,946.991118 1097.12701,940.586035 C1302.50097,868.383277 1460.44682,1153.53888 1030.83024,1266.48278 C1030.83024,1266.48278 1035.81659,1262.03711 1037.30002,1258.05358" id="Shape" fill="#5382A1" fill-rule="nonzero"></path>
            <path d="M843.359087,1.84388765 C843.359087,1.84388765 1021.50913,180.04939 674.391508,454.090837 C396.038414,673.910896 610.918333,799.249043 674.275977,942.45765 C511.801285,795.857029 392.563218,666.812622 472.557441,546.705755 C589.965485,370.399596 915.238357,284.919922 843.359087,1.84388765" id="Path" fill="#E76F00"></path>
            <path d="M509.906564,1711.00758 C818.676872,1730.77276 1292.82865,1700.0413 1304.05372,1553.9444 C1304.05372,1553.9444 1282.47238,1609.32573 1048.87169,1653.31562 C785.334392,1702.90649 460.287963,1697.12066 267.502347,1665.33555 C267.511589,1665.32631 306.972633,1697.99408 509.906564,1711.00758" id="Path" fill="#5382A1"></path>
            <path d="M459.303632,2269.27114 C430.175753,2294.53563 399.411943,2308.71832 371.804462,2308.71832 C332.398874,2308.71832 311.108672,2285.08975 311.108672,2247.1907 C311.108672,2206.19539 333.923893,2176.22182 425.434327,2176.22182 L459.299011,2176.22182 L459.303632,2269.27114 Z M539.6768,2359.95436 L539.6768,2079.24904 C539.6768,2007.53614 498.77854,1960.22355 400.169832,1960.22355 C342.602643,1960.22355 292.17532,1974.43859 251.189256,1992.56784 L263.019713,2042.25576 C295.290057,2030.41144 337.061737,2019.38508 378.061665,2019.38508 C434.866344,2019.38508 459.303632,2042.25576 459.303632,2089.54062 L459.303632,2125.02275 L430.952127,2125.02275 C292.937829,2125.02275 230.680049,2178.59716 230.680049,2259.00729 C230.680049,2328.40956 271.707705,2367.85674 348.956892,2367.85674 C398.612463,2367.85674 435.679688,2347.35216 470.329988,2317.35086 L476.619539,2359.96361 L539.6768,2359.95436 Z M807.909308,2359.95436 L707.66929,2359.95436 L587.026356,1967.33107 L674.571738,1967.33107 L749.427107,2208.55686 L766.068308,2281.10622 C803.939635,2176.21258 830.72915,2069.79392 844.126218,1967.33107 L929.282403,1967.33107 C906.46256,2096.61578 865.407177,2238.52581 807.909308,2359.95436 Z M1192.46386,2269.27114 C1163.28053,2294.53563 1132.46588,2308.71832 1104.85378,2308.71832 C1065.51751,2308.71832 1044.17185,2285.08975 1044.17185,2247.1907 C1044.17185,2206.19539 1067.03329,2176.22182 1158.5391,2176.22182 L1192.46386,2176.22182 L1192.46386,2269.27114 Z M1272.82779,2359.95436 L1272.82779,2079.24904 C1272.82779,2007.53614 1231.83248,1960.22355 1133.33006,1960.22355 C1075.7259,1960.22355 1025.28009,1974.43859 984.312514,1992.56784 L996.129107,2042.25576 C1028.40869,2030.41144 1070.25894,2019.38508 1111.22651,2019.38508 C1167.9896,2019.38508 1192.46386,2042.25576 1192.46386,2089.54062 L1192.46386,2125.02275 L1164.06152,2125.02275 C1026.01025,2125.02275 963.775579,2178.59716 963.775579,2259.00729 C963.775579,2328.40956 1004.77089,2367.85674 1082.00621,2367.85674 C1131.69413,2367.85674 1168.74749,2347.35216 1203.45325,2317.35086 L1209.7659,2359.96361 L1272.82779,2359.95436 Z M142.552386,2426.62546 C119.640118,2460.07885 82.6329699,2486.54488 42.1182757,2501.5178 L2.4354105,2454.81984 C33.2731605,2438.99661 59.7207019,2413.44097 72.0086649,2389.64142 C82.6375912,2368.47137 87.0370424,2341.18738 87.0370424,2275.93963 L87.0370424,1827.69933 L172.428912,1827.69933 L172.428912,2269.79796 C172.424291,2357.02448 165.450791,2392.26168 142.552386,2426.62546 Z" id="Shape" fill="#E76F00" fill-rule="nonzero"></path>
        </g>
    </g>
</svg>